<svg width="65" height="65" viewBox="0 0 65 65" fill="none" xmlns="http://www.w3.org/2000/svg">
<path fill-rule="evenodd" clip-rule="evenodd" d="M0 32.5C0 14.5507 14.5507 0 32.5 0C50.4493 0 65 14.5507 65 32.5C65 50.4493 50.4493 65 32.5 65C14.5507 65 0 50.4493 0 32.5ZM16.25 32.8403C16.25 23.8954 23.5053 16.64 32.4503 16.64C41.3953 16.64 48.6506 23.8954 48.75 32.8403C48.75 39.9963 44.1781 46.059 37.7178 48.2455C36.9228 48.3449 36.6246 47.848 36.6246 47.4504V42.9779C36.6246 41.4871 36.1277 40.4932 35.5314 39.9963C39.1094 39.5987 42.8861 38.3067 42.8861 32.0452C42.8861 30.2562 42.1903 28.7654 41.1965 27.6721C41.2043 27.6409 41.2153 27.6017 41.2283 27.5549C41.3804 27.006 41.8219 25.4132 40.9977 23.3984C40.9977 23.3984 39.6063 23.0009 36.5252 25.088C35.2332 24.7899 33.8417 24.5911 32.4503 24.5911C31.0589 24.5911 29.6675 24.6905 28.3754 25.088C25.2943 23.0009 23.9029 23.3984 23.9029 23.3984C23.0245 25.5456 23.5838 27.2136 23.6983 27.5553L23.7042 27.5727C22.6108 28.7654 22.0145 30.1568 22.0145 31.9458C22.0145 38.2073 25.7913 39.5987 29.3693 39.9963C28.9717 40.3938 28.4748 41.0895 28.3754 42.1828C27.4809 42.5804 25.195 43.2761 23.7042 40.7914C23.7042 40.7914 22.8097 39.2012 21.2194 39.1018C21.2194 39.1018 19.6293 39.1018 21.1201 40.0957C21.1201 40.0957 22.2133 40.5926 22.909 42.481C22.909 42.481 23.9029 45.6614 28.3754 44.6675V47.4504C28.3754 47.848 28.0772 48.3449 27.2822 48.2455C20.9212 46.059 16.25 39.9963 16.25 32.8403Z" fill="#BCBCBC"/>
</svg>
