<svg width="65" height="65" viewBox="0 0 65 65" fill="none" xmlns="http://www.w3.org/2000/svg">
<path fill-rule="evenodd" clip-rule="evenodd" d="M0 32.5C0 14.5507 14.5507 0 32.5 0C50.4493 0 65 14.5507 65 32.5C65 50.4493 50.4493 65 32.5 65C14.5507 65 0 50.4493 0 32.5ZM16.6562 27.0156V48.75H23.5625V27.0156H16.6562ZM16.25 20.1094C16.25 22.3438 17.875 23.9688 20.1094 23.9688C22.3438 23.9688 23.9688 22.3438 23.9688 20.1094C23.9688 17.875 22.3438 16.25 20.1094 16.25C18.0781 16.25 16.25 17.875 16.25 20.1094ZM41.8438 48.75H48.3438V35.3438C48.3438 28.6406 44.2812 26.4062 40.4219 26.4062C36.9687 26.4062 34.5312 28.6406 33.9219 30.0625V27.0156H27.4219V48.75H34.3281V37.1719C34.3281 34.125 36.3594 32.5 38.3906 32.5C40.4219 32.5 41.8438 33.5156 41.8438 36.9687V48.75Z" fill="currentColor"/>
</svg>
