<svg width="100" height="100" viewBox="0 0 100 100" fill="none" xmlns="http://www.w3.org/2000/svg">
<g clip-path="url(#clip0_19_274)">
<path d="M77.4583 43.8334C81.8333 45.9584 85.9583 48.625 89.7917 51.7917L85.3333 56.25C82.9167 54.2917 80.2917 52.5417 77.5 50.9584V43.8334H77.4583ZM22.5 43.8334V50.9167C19.7917 52.4584 17.1667 54.2084 14.7083 56.2084L10.25 51.75C14.0417 48.625 18.1667 46 22.5 43.8334V43.8334ZM50 29.1667C31.0833 29.1667 13.9167 36.5834 1.20833 48.625C0.458333 49.375 0 50.4167 0 51.5834C0 52.75 0.458333 53.7917 1.20833 54.5L11.5417 64.8334C12.2917 65.5834 13.3333 66.0417 14.5 66.0417C15.625 66.0417 16.6667 65.625 17.4167 64.875C20.7083 61.8334 24.4167 59.2084 28.5 57.1667C29.875 56.5 30.8333 55.0417 30.8333 53.4167V40.5C36.875 38.5417 43.3333 37.5 50 37.5C56.6667 37.5 63.125 38.5417 69.125 40.5417V53.4584C69.125 55.125 70.0833 56.5417 71.4583 57.2084C75.5417 59.25 79.2917 61.8334 82.5833 64.9167C83.3333 65.625 84.375 66.0834 85.5 66.0834C86.6667 66.0834 87.7083 65.625 88.4583 64.875L98.7917 54.5417C99.5417 53.7917 100 52.75 100 51.5834C100 50.4167 99.5417 49.375 98.7917 48.625C86.0833 36.5834 68.9167 29.1667 50 29.1667Z" fill="#DDDDDD"/>
</g>
<defs>
<clipPath id="clip0_19_274">
<rect width="100" height="100" fill="white"/>
</clipPath>
</defs>
</svg>
