<svg width="101" height="100" viewBox="0 0 101 100" fill="none" xmlns="http://www.w3.org/2000/svg">
<g clip-path="url(#clip0_19_285)">
<path d="M65.271 45.8333C68.7228 45.8333 71.521 43.0351 71.521 39.5833C71.521 36.1315 68.7228 33.3333 65.271 33.3333C61.8192 33.3333 59.021 36.1315 59.021 39.5833C59.021 43.0351 61.8192 45.8333 65.271 45.8333Z" fill="#DDDDDD"/>
<path d="M36.104 45.8333C39.5558 45.8333 42.354 43.0351 42.354 39.5833C42.354 36.1315 39.5558 33.3333 36.104 33.3333C32.6522 33.3333 29.854 36.1315 29.854 39.5833C29.854 43.0351 32.6522 45.8333 36.104 45.8333Z" fill="#DDDDDD"/>
<path d="M50.6877 66.6666C44.521 66.6666 39.2293 63.2916 36.3127 58.3333H29.3543C32.6877 66.875 40.9793 72.9166 50.6877 72.9166C60.396 72.9166 68.6877 66.875 72.021 58.3333H65.0627C62.146 63.2916 56.8543 66.6666 50.6877 66.6666ZM50.646 8.33331C27.646 8.33331 9.021 27 9.021 50C9.021 73 27.646 91.6666 50.646 91.6666C73.6877 91.6666 92.3543 73 92.3543 50C92.3543 27 73.6877 8.33331 50.646 8.33331ZM50.6877 83.3333C32.271 83.3333 17.3543 68.4166 17.3543 50C17.3543 31.5833 32.271 16.6666 50.6877 16.6666C69.1043 16.6666 84.021 31.5833 84.021 50C84.021 68.4166 69.1043 83.3333 50.6877 83.3333Z" fill="#DDDDDD"/>
</g>
<defs>
<clipPath id="clip0_19_285">
<rect width="100" height="100" fill="white" transform="translate(0.6875)"/>
</clipPath>
</defs>
</svg>
