<svg width="100" height="100" viewBox="0 0 100 100" fill="none" xmlns="http://www.w3.org/2000/svg">
<g clip-path="url(#clip0_19_279)">
<path d="M49.9998 16.6667V4.16669L33.3332 20.8334L49.9998 37.5V25C63.7915 25 74.9998 36.2084 74.9998 50C74.9998 54.2084 73.9582 58.2084 72.0832 61.6667L78.1665 67.75C81.4165 62.625 83.3332 56.5417 83.3332 50C83.3332 31.5834 68.4165 16.6667 49.9998 16.6667ZM49.9998 75C36.2082 75 24.9998 63.7917 24.9998 50C24.9998 45.7917 26.0415 41.7917 27.9165 38.3334L21.8332 32.25C18.5832 37.375 16.6665 43.4584 16.6665 50C16.6665 68.4167 31.5832 83.3334 49.9998 83.3334V95.8334L66.6665 79.1667L49.9998 62.5V75Z" fill="#DDDDDD"/>
</g>
<defs>
<clipPath id="clip0_19_279">
<rect width="100" height="100" fill="white"/>
</clipPath>
</defs>
</svg>
